<?xml version="1.0" standalone="no"?>
<!DOCTYPE svg PUBLIC "-//W3C//DTD SVG 20010904//EN"
 "http://www.w3.org/TR/2001/REC-SVG-20010904/DTD/svg10.dtd">
<svg version="1.0" xmlns="http://www.w3.org/2000/svg"
 width="590.000000pt" height="590.000000pt" viewBox="0 0 590.000000 590.000000"
 preserveAspectRatio="xMidYMid meet">
<metadata>
Created by potrace 1.16, written by Peter Selinger 2001-2019
</metadata>
<g transform="translate(0.000000,590.000000) scale(0.100000,-0.100000)"
fill="#000000" stroke="none">
<path d="M2784 5806 c-17 -8 -40 -27 -51 -42 -54 -76 -126 -252 -208 -506 -96
-294 -92 -286 -163 -360 l-65 -67 -6 -188 c-4 -103 -6 -189 -6 -190 1 -2 28 2
59 8 32 6 77 7 100 4 45 -8 96 -48 96 -77 0 -10 5 -18 10 -18 6 0 10 4 10 10
0 5 25 146 55 312 89 486 175 880 226 1036 30 90 16 109 -57 78z"/>
<path d="M3085 5807 c-4 -8 7 -59 24 -113 53 -169 163 -692 247 -1166 15 -87
31 -158 36 -158 4 0 8 6 8 14 0 8 11 28 25 45 31 36 103 49 179 31 27 -6 50
-9 51 -8 2 2 0 88 -5 191 l-7 188 -65 67 -65 67 -77 235 c-116 355 -201 552
-256 592 -36 26 -88 34 -95 15z"/>
<path d="M2553 5781 c-126 -91 -238 -304 -322 -612 -53 -193 -53 -191 -117
-265 l-56 -64 -9 -178 c-5 -97 -11 -187 -13 -200 -3 -18 0 -22 13 -17 34 14
121 17 152 6 18 -6 34 -9 37 -6 3 3 8 93 12 200 l7 195 60 63 c33 34 65 72 72
85 7 13 50 136 95 275 46 139 102 296 125 349 l42 97 -19 44 c-11 25 -24 47
-30 51 -5 3 -27 -7 -49 -23z"/>
<path d="M3331 5797 c-6 -8 -18 -30 -26 -51 -16 -37 -15 -39 26 -134 22 -54
81 -215 129 -359 92 -275 105 -301 194 -380 l36 -31 0 -134 c0 -73 3 -164 7
-201 5 -57 9 -67 22 -61 30 12 116 16 151 7 l35 -10 -11 198 -10 197 -61 72
c-58 68 -63 78 -92 188 -90 333 -188 542 -304 649 -59 55 -82 66 -96 50z"/>
<path d="M2196 5609 c-117 -107 -164 -212 -211 -474 -30 -171 -47 -231 -80
-279 -54 -80 -55 -83 -55 -278 0 -101 3 -193 6 -204 6 -21 7 -21 56 -6 35 12
54 24 64 44 20 39 34 147 34 273 0 61 4 125 10 143 5 19 34 65 66 103 52 64
58 77 91 196 44 163 72 248 121 361 41 96 41 103 -1 150 -11 12 -26 22 -33 22
-7 0 -37 -23 -68 -51z"/>
<path d="M3644 5638 c-46 -53 -46 -48 1 -157 40 -90 64 -162 136 -413 12 -40
33 -84 54 -110 93 -116 89 -104 96 -287 7 -164 19 -240 43 -273 18 -24 96 -43
108 -26 4 7 7 103 6 213 l-3 200 -38 54 c-44 63 -57 107 -93 301 -31 175 -63
279 -104 343 -39 61 -151 177 -171 177 -9 0 -24 -10 -35 -22z"/>
<path d="M1941 5460 c-59 -75 -86 -140 -131 -321 -57 -230 -85 -318 -115 -361
-25 -36 -25 -39 -25 -235 0 -109 3 -228 6 -265 l7 -66 64 64 65 64 -1 203 c-1
111 3 218 8 238 5 21 22 54 39 75 37 47 55 106 87 289 14 77 37 179 52 227 41
139 16 179 -56 88z"/>
<path d="M3932 5498 c-17 -17 -15 -45 7 -109 11 -30 36 -140 56 -244 40 -208
49 -234 97 -301 l33 -46 0 -234 c0 -129 4 -234 9 -234 4 0 34 -27 66 -59 l58
-59 6 71 c3 40 9 154 12 254 l7 183 -27 40 c-39 59 -60 118 -100 285 -39 160
-79 292 -101 335 -18 36 -93 130 -103 130 -5 0 -13 -5 -20 -12z"/>
<path d="M1708 5288 c-33 -51 -89 -215 -118 -348 -19 -84 -59 -208 -82 -252
-20 -37 -21 -51 -15 -191 6 -148 35 -353 57 -412 l11 -29 37 37 c37 37 37 38
37 120 0 45 -4 179 -9 298 l-9 217 36 58 c36 59 84 213 123 395 l18 82 -28 23
c-34 30 -40 30 -58 2z"/>
<path d="M4176 5285 l-30 -24 33 -143 c43 -185 73 -274 112 -338 l32 -52 -9
-226 c-15 -376 -15 -365 28 -409 l37 -37 10 26 c31 81 61 319 61 481 0 77 -4
98 -31 159 -17 39 -46 132 -65 207 -56 224 -115 382 -141 381 -5 -1 -21 -12
-37 -25z"/>
<path d="M1491 5047 c-79 -97 -161 -579 -132 -782 13 -93 51 -219 98 -330 l37
-90 8 50 c4 28 12 66 18 85 10 30 8 48 -13 120 -29 101 -45 214 -56 410 l-8
145 35 69 c19 39 45 114 59 169 l24 98 -21 35 c-24 37 -32 41 -49 21z"/>
<path d="M4401 5023 c-12 -14 -19 -33 -17 -42 2 -9 12 -50 21 -91 10 -41 34
-112 55 -157 l38 -82 -9 -148 c-13 -223 -24 -302 -60 -423 -17 -60 -17 -69 -4
-114 8 -27 15 -65 15 -85 l1 -36 25 48 c14 27 44 103 67 170 l42 122 0 230
c-1 223 -2 234 -33 370 -32 143 -82 265 -107 265 -7 0 -23 -12 -34 -27z"/>
<path d="M1275 4759 c-41 -92 -49 -176 -36 -379 25 -379 40 -445 138 -598 l34
-54 30 41 c28 40 29 43 14 71 -32 61 -86 206 -112 299 -24 84 -27 114 -28 246
0 100 6 191 19 272 19 119 19 124 1 143 -10 11 -21 20 -25 20 -4 0 -20 -27
-35 -61z"/>
<path d="M4605 4800 c-17 -19 -17 -24 0 -127 49 -309 22 -523 -96 -782 l-39
-83 25 -30 c14 -16 25 -34 25 -40 0 -44 118 158 139 237 29 112 59 580 42 668
-11 60 -58 177 -71 177 -4 0 -15 -9 -25 -20z"/>
<path d="M1150 4603 c0 -5 -7 -44 -15 -88 -15 -85 -10 -162 20 -315 8 -41 21
-136 30 -212 9 -83 23 -157 36 -190 29 -73 95 -200 131 -249 29 -40 30 -40 49
-23 11 10 17 24 14 33 -4 9 -11 41 -17 71 -6 36 -28 87 -63 145 -30 50 -63
112 -74 139 -27 61 -47 218 -62 471 -6 110 -16 206 -21 213 -11 13 -28 16 -28
5z"/>
<path d="M4769 4598 c-13 -11 -18 -52 -28 -218 -14 -243 -34 -403 -56 -456 -9
-22 -41 -83 -71 -136 -36 -62 -63 -125 -75 -174 -18 -73 -18 -77 -2 -90 16
-12 21 -10 46 19 35 41 119 204 145 282 11 33 23 96 27 140 3 44 18 148 32
230 27 165 31 294 11 368 -12 42 -15 46 -29 35z"/>
<path d="M2350 4421 c-56 -12 -95 -37 -150 -98 -60 -68 -136 -215 -150 -292
-13 -71 -13 -341 0 -341 6 0 10 1 10 3 0 1 13 65 29 142 56 278 161 450 308
505 30 11 65 20 78 20 40 0 33 38 -10 56 -37 15 -59 16 -115 5z"/>
<path d="M3480 4419 c-48 -20 -55 -59 -10 -59 93 0 208 -84 279 -204 46 -77
97 -230 118 -354 10 -56 21 -102 26 -102 5 0 7 80 5 178 l-3 177 -52 106 c-56
115 -130 207 -192 239 -45 22 -138 33 -171 19z"/>
<path d="M2070 4408 c-47 -13 -86 -52 -121 -120 -49 -97 -62 -174 -55 -328 4
-116 35 -312 50 -327 2 -3 16 3 29 14 25 18 25 19 29 218 4 193 5 202 32 265
33 76 100 182 150 238 l36 39 -31 7 c-41 8 -76 6 -119 -6z"/>
<path d="M3742 4413 c-22 -4 -22 -6 17 -48 54 -59 105 -140 144 -228 31 -71
31 -73 35 -269 l4 -198 28 -20 28 -20 17 72 c46 202 46 414 0 535 -55 145
-141 201 -273 176z"/>
<path d="M1034 4324 c-8 -42 1 -111 27 -219 10 -44 37 -163 59 -264 22 -101
49 -204 60 -229 22 -49 128 -202 141 -202 4 0 13 16 19 35 10 31 9 38 -18 77
-106 156 -160 294 -177 454 -15 132 -27 209 -51 317 -13 53 -19 67 -34 67 -14
0 -21 -10 -26 -36z"/>
<path d="M4861 4341 c-15 -27 -58 -272 -65 -373 -10 -132 -72 -289 -168 -432
-40 -59 -40 -59 -24 -93 9 -19 20 -31 26 -28 5 3 36 46 69 96 70 103 84 146
140 409 22 102 47 214 55 250 24 100 19 190 -10 190 -7 0 -18 -8 -23 -19z"/>
<path d="M1855 4303 c-63 -32 -101 -67 -128 -118 -19 -35 -22 -55 -20 -150 1
-119 18 -212 56 -318 27 -75 87 -179 100 -174 5 1 16 14 25 29 15 25 14 33 -1
115 -48 242 -47 428 1 561 17 45 28 82 24 82 -4 -1 -29 -12 -57 -27z"/>
<path d="M3413 4322 c-22 -3 -22 -5 -8 -31 20 -39 48 -186 90 -467 19 -133 42
-263 50 -289 28 -93 85 -123 200 -105 74 12 89 7 128 -40 92 -108 131 -335 77
-440 -24 -46 -125 -140 -151 -140 -3 0 -4 22 -1 50 l5 50 -298 2 -298 3 -33
211 c-18 116 -39 228 -48 247 -32 77 -150 112 -376 111 -158 0 -256 -19 -372
-71 l-58 -26 0 -54 0 -55 38 24 c73 45 295 23 424 -43 59 -30 59 -39 6 -236
l-30 -113 -105 0 c-90 0 -104 -2 -110 -17 -3 -10 -16 -42 -29 -70 l-23 -53
-50 0 c-68 0 -255 37 -314 62 -62 27 -131 103 -146 162 -32 128 23 327 114
416 l33 32 72 -11 c80 -13 136 -3 163 27 39 43 53 104 113 507 24 162 50 289
69 338 6 15 1 17 -47 17 -179 0 -331 -216 -378 -535 -16 -113 -16 -113 -72
-141 -102 -52 -179 -145 -226 -276 -24 -66 -26 -86 -26 -218 1 -129 4 -155 28
-235 56 -184 144 -360 262 -519 49 -65 64 -95 62 -114 -3 -26 -5 -24 -48 30
l-44 57 -40 -62 c-89 -136 -225 -240 -339 -260 l-64 -11 9 -35 c16 -61 54
-115 96 -139 77 -43 143 -22 235 78 53 57 177 234 177 252 0 4 5 8 10 8 23 0
8 -61 -31 -121 -101 -156 -209 -262 -280 -275 -59 -10 -61 -11 -48 -35 18 -35
90 -109 120 -125 39 -20 82 -17 113 7 14 11 50 57 78 101 50 76 53 79 60 53 6
-23 0 -38 -32 -84 -22 -31 -54 -73 -72 -93 l-31 -38 23 -25 c39 -41 56 -41
107 4 52 47 59 49 68 21 10 -30 98 -160 142 -210 l41 -45 -214 -427 -214 -428
115 0 115 0 177 355 c98 195 183 355 190 355 6 0 14 -4 18 -9 3 -6 -91 -204
-210 -441 -119 -237 -213 -436 -209 -442 8 -12 244 -3 255 10 4 4 89 169 189
367 101 198 185 362 186 364 2 2 10 -1 17 -7 11 -9 -32 -101 -219 -474 -128
-255 -233 -466 -234 -470 0 -5 275 -8 610 -8 l610 0 -235 469 c-191 382 -232
471 -221 481 11 9 42 -43 159 -272 80 -156 166 -325 191 -375 l46 -93 130 0
129 0 -24 53 c-13 30 -111 230 -219 446 -158 315 -193 393 -181 397 9 4 17 5
19 3 2 -2 83 -163 180 -356 l176 -353 114 0 115 0 -93 193 c-51 105 -146 297
-210 425 l-117 234 28 35 c64 79 87 111 125 178 23 39 43 72 45 74 2 3 25 -16
51 -42 26 -26 55 -47 63 -47 17 0 69 50 69 66 0 6 -10 19 -22 30 -11 10 -41
45 -65 78 -34 47 -43 66 -43 100 l0 41 40 -65 c22 -36 56 -84 75 -108 30 -35
42 -42 71 -42 46 0 80 19 130 72 45 47 67 82 57 92 -3 3 -17 6 -30 6 -68 0
-184 104 -284 253 -48 73 -59 96 -59 130 l0 42 40 -70 c93 -158 194 -270 277
-307 l45 -20 54 27 c58 28 93 74 112 148 10 36 10 37 -17 37 -112 0 -270 111
-372 261 l-41 61 -46 -61 c-47 -61 -47 -61 -50 -31 -3 23 7 43 41 87 308 404
402 805 257 1093 -40 79 -108 151 -179 189 -65 34 -64 33 -81 142 -15 98 -56
233 -97 318 -70 146 -209 242 -320 223z m363 -2013 l-7 -582 -51 -101 c-116
-233 -230 -342 -619 -594 -69 -45 -128 -82 -131 -82 -6 0 -260 166 -377 247
-173 119 -323 295 -383 451 -40 102 -48 190 -48 559 0 270 2 314 16 327 8 9
22 16 29 16 8 0 36 7 62 16 117 40 224 145 265 262 l23 62 614 0 614 0 -7
-581z"/>
<path d="M2566 2794 c-24 -70 -59 -125 -114 -176 -57 -53 -110 -83 -185 -102
l-52 -13 -3 -324 c-1 -194 2 -352 8 -393 23 -147 87 -262 225 -401 83 -85 135
-125 312 -242 l212 -140 198 132 c314 210 391 286 502 496 l54 101 5 554 5
554 -576 0 -575 0 -16 -46z m525 -382 c53 -86 164 -269 248 -405 83 -136 151
-251 151 -255 0 -4 -160 -7 -355 -7 -232 0 -355 3 -353 10 2 6 25 47 53 93
l50 82 137 0 c76 0 138 2 138 5 0 2 -63 107 -140 231 -77 125 -140 228 -140
229 0 9 103 175 109 175 3 0 49 -71 102 -158z m-298 11 c14 -27 11 -34 -127
-258 l-142 -230 -38 -3 c-21 -2 -37 1 -35 6 11 26 315 512 321 512 4 0 14 -12
21 -27z m557 -195 c74 -122 145 -238 158 -260 l23 -38 -35 0 c-40 0 -28 -16
-218 292 -108 175 -109 177 -92 203 9 14 19 25 23 25 3 0 67 -100 141 -222z
m-451 16 c50 -80 53 -88 40 -109 -8 -13 -63 -104 -124 -203 l-110 -181 -108
-3 c-60 -2 -110 -2 -112 0 -4 4 349 581 355 582 3 0 29 -39 59 -86z m339 -579
c7 -14 12 -28 12 -30 0 -3 -124 -5 -276 -5 l-275 0 21 30 21 30 243 0 243 0
11 -25z"/>
<path d="M4045 4273 c13 -32 29 -86 35 -121 17 -86 8 -289 -20 -434 l-22 -117
23 -32 c21 -30 23 -31 36 -13 98 131 171 462 131 596 -16 55 -76 119 -141 151
-31 15 -58 27 -61 27 -2 0 6 -26 19 -57z"/>
<path d="M936 4094 c-13 -33 -5 -164 13 -237 27 -102 61 -187 137 -342 70
-142 136 -237 184 -268 l32 -20 25 25 c24 25 25 26 9 59 -9 19 -35 57 -57 84
-70 87 -138 196 -154 247 -13 45 -33 131 -80 351 -16 74 -19 79 -56 97 -46 24
-45 24 -53 4z"/>
<path d="M4949 4090 l-35 -19 -48 -217 c-56 -255 -80 -309 -200 -453 -21 -25
-46 -62 -57 -82 l-19 -38 23 -27 24 -27 32 19 c18 10 53 46 78 79 59 78 172
310 219 450 34 99 38 121 38 219 1 65 -3 110 -9 112 -5 2 -26 -5 -46 -16z"/>
<path d="M1619 4053 c-52 -54 -71 -98 -77 -173 -5 -77 20 -162 73 -250 36 -60
161 -210 174 -210 4 0 16 18 26 40 l18 40 -35 57 c-74 120 -122 276 -135 441
l-8 93 -36 -38z"/>
<path d="M4277 3998 c-11 -158 -71 -352 -145 -463 l-20 -30 22 -43 22 -44 49
54 c71 79 146 195 172 266 45 122 22 242 -59 320 l-35 33 -6 -93z"/>
<path d="M1483 3757 c-52 -57 -57 -124 -16 -208 34 -69 171 -207 239 -242 l51
-26 10 42 c9 41 8 43 -47 107 -107 123 -154 195 -195 296 l-22 54 -20 -23z"/>
<path d="M4416 3722 c-33 -79 -97 -179 -173 -268 l-73 -84 11 -44 11 -44 36
21 c151 85 272 240 272 348 0 45 -30 108 -55 116 -5 1 -19 -18 -29 -45z"/>
<path d="M880 3688 c0 -110 41 -217 140 -365 102 -154 176 -235 243 -267 103
-49 119 -43 72 26 -14 21 -28 51 -31 68 -4 19 -18 37 -40 51 -75 46 -157 166
-248 364 -68 146 -67 144 -104 151 -31 6 -32 6 -32 -28z"/>
<path d="M5008 3709 c-10 -5 -56 -87 -102 -182 -90 -183 -150 -269 -222 -320
-29 -20 -44 -38 -44 -52 0 -12 -14 -43 -31 -69 -19 -27 -28 -51 -23 -56 5 -5
34 1 69 15 44 18 76 41 120 87 65 68 186 240 229 327 30 57 56 162 56 224 0
39 -16 48 -52 26z"/>
<path d="M1390 3458 c-30 -50 -30 -116 1 -160 46 -64 204 -145 307 -155 l52
-6 0 50 0 50 -67 39 c-41 23 -103 74 -155 126 -48 49 -94 88 -103 88 -8 0 -24
-15 -35 -32z"/>
<path d="M4405 3396 c-57 -58 -111 -102 -147 -121 l-58 -30 0 -52 c0 -51 1
-53 28 -53 118 0 329 128 345 209 11 54 -27 142 -61 140 -9 -1 -57 -42 -107
-93z"/>
<path d="M868 3389 c-34 -19 -12 -117 53 -240 61 -113 231 -241 357 -268 l42
-9 0 43 c0 24 2 49 5 57 4 9 -12 19 -47 32 -70 24 -188 143 -286 289 -73 107
-87 118 -124 96z"/>
<path d="M4960 3308 c-127 -185 -192 -254 -285 -299 l-60 -29 3 -54 4 -53 41
8 c112 24 282 144 344 242 28 44 68 147 82 207 8 35 6 42 -12 55 -12 8 -29 15
-37 15 -9 0 -45 -42 -80 -92z"/>
<path d="M1354 3225 c-33 -51 2 -132 82 -188 43 -29 133 -47 239 -47 79 0 89
7 80 58 -6 38 -10 42 -43 48 -110 18 -208 58 -294 121 l-47 34 -17 -26z"/>
<path d="M4525 3219 c-59 -46 -171 -97 -249 -113 -37 -8 -70 -17 -73 -20 -3
-3 -8 -25 -10 -51 l-6 -45 69 0 c116 1 204 18 248 48 84 58 119 143 79 191
l-18 21 -40 -31z"/>
<path d="M822 3138 c-31 -34 -36 -70 -18 -130 50 -167 211 -258 457 -258 62 0
110 4 114 10 3 6 -3 23 -14 39 -15 21 -33 31 -64 36 -139 23 -311 139 -399
267 -21 32 -42 58 -47 58 -4 0 -17 -10 -29 -22z"/>
<path d="M5054 3118 c-80 -131 -267 -259 -411 -283 -31 -5 -49 -15 -64 -36
-11 -16 -17 -33 -14 -39 8 -12 168 -13 250 -1 136 20 230 79 292 183 45 74 52
132 21 177 -12 19 -28 36 -35 38 -7 3 -24 -15 -39 -39z"/>
<path d="M1376 2978 c-9 -12 -16 -36 -16 -53 0 -42 40 -117 70 -133 38 -20
189 -8 287 23 89 28 84 19 62 105 l-9 35 -127 1 c-105 1 -138 6 -181 23 -65
26 -67 26 -86 -1z"/>
<path d="M4475 2978 c-38 -15 -81 -21 -175 -24 l-125 -4 -13 -52 c-7 -28 -9
-55 -4 -60 4 -4 53 -20 108 -34 79 -20 114 -25 174 -20 68 4 78 8 102 35 33
36 46 108 28 151 -14 35 -26 36 -95 8z"/>
<path d="M832 2815 c-28 -61 -6 -115 67 -169 113 -83 267 -132 390 -123 40 3
78 10 83 15 5 5 4 20 -2 36 -6 16 -11 50 -13 77 l-2 49 -45 0 c-162 1 -324 42
-408 104 -28 20 -52 36 -54 36 -3 0 -10 -11 -16 -25z"/>
<path d="M5033 2801 c-74 -53 -165 -81 -314 -94 l-126 -11 -12 -65 c-7 -37
-13 -73 -14 -81 -4 -32 136 -39 245 -11 172 44 308 144 308 225 0 27 -19 77
-29 75 -3 0 -29 -18 -58 -38z"/>
<path d="M1700 2769 c-81 -22 -125 -28 -191 -27 -48 0 -91 -2 -97 -6 -39 -24
-10 -179 38 -204 31 -16 108 -8 193 20 80 25 227 96 227 108 0 16 -53 140 -59
139 -3 -1 -53 -14 -111 -30z"/>
<path d="M4105 2734 c-14 -31 -25 -62 -25 -69 0 -28 192 -115 295 -134 81 -15
122 -6 145 32 23 38 34 114 21 148 -9 25 -12 26 -123 32 -64 3 -145 15 -188
26 -41 11 -81 21 -88 21 -7 0 -23 -25 -37 -56z"/>
<path d="M1860 2599 c-74 -39 -241 -99 -309 -111 -70 -12 -72 -13 -66 -38 25
-103 131 -126 273 -60 60 28 192 115 192 126 0 5 -35 73 -47 91 -6 8 -18 6
-43 -8z"/>
<path d="M4018 2561 l-27 -50 52 -37 c80 -58 188 -111 243 -118 88 -12 153 24
170 97 5 24 3 27 -18 27 -48 0 -184 41 -283 85 -55 25 -102 45 -105 45 -3 0
-17 -22 -32 -49z"/>
<path d="M896 2558 c-21 -29 -20 -107 0 -157 11 -28 30 -49 62 -70 55 -34 158
-71 201 -71 41 0 183 46 254 82 47 23 57 33 51 46 -4 9 -12 37 -19 62 -12 44
-13 45 -51 42 -147 -10 -231 -5 -304 17 -41 13 -96 34 -122 47 -57 29 -53 29
-72 2z"/>
<path d="M4980 2560 c-19 -11 -71 -31 -115 -46 -87 -28 -205 -37 -301 -20
l-52 8 -17 -53 c-9 -30 -19 -60 -22 -67 -6 -16 113 -72 220 -103 68 -20 84
-22 132 -12 80 17 180 68 207 105 40 56 35 209 -6 208 -6 -1 -27 -10 -46 -20z"/>
<path d="M1896 2425 c-134 -93 -256 -128 -350 -102 l-29 8 6 -70 c10 -121 49
-173 132 -173 56 0 116 28 187 86 63 51 165 175 174 211 5 21 -16 78 -34 89
-4 2 -43 -20 -86 -49z"/>
<path d="M3943 2439 c-27 -40 -27 -41 -9 -74 30 -55 121 -159 178 -203 66 -51
115 -72 167 -72 90 0 131 50 139 168 5 71 4 75 -14 68 -10 -4 -39 -10 -64 -13
-76 -9 -213 47 -326 133 l-44 34 -27 -41z"/>
<path d="M1395 2289 c-157 -74 -243 -83 -372 -37 -51 18 -65 19 -77 8 -32 -26
-14 -147 29 -199 47 -55 181 -65 307 -22 110 38 226 110 212 133 -4 6 -9 43
-13 82 l-6 72 -80 -37z"/>
<path d="M4460 2278 c0 -29 -3 -69 -6 -90 -6 -34 -4 -38 42 -72 27 -19 87 -50
134 -67 73 -28 99 -32 182 -33 83 -1 101 2 125 20 42 30 73 99 73 160 0 76
-14 83 -98 53 -121 -43 -232 -28 -394 53 l-58 28 0 -52z"/>
<path d="M1500 2105 c-7 -8 -57 -37 -110 -64 -136 -68 -242 -84 -376 -56 -26
6 -32 3 -42 -20 -25 -55 -10 -104 54 -175 63 -69 116 -72 264 -13 89 36 154
73 225 131 60 48 60 49 60 100 -1 45 -5 57 -31 83 -27 27 -32 28 -44 14z"/>
<path d="M4395 2090 c-20 -21 -29 -42 -32 -77 -5 -47 -4 -49 45 -90 120 -102
296 -183 399 -186 45 -1 57 3 84 28 46 43 89 114 89 146 0 16 -5 40 -12 54
-11 24 -15 26 -52 18 -70 -14 -197 -8 -256 12 -64 21 -150 63 -202 98 l-36 25
-27 -28z"/>
<path d="M1531 1869 c-36 -28 -92 -65 -125 -84 -82 -46 -233 -95 -291 -95
l-48 0 5 -50 c6 -64 41 -114 96 -141 38 -19 54 -21 119 -15 93 9 167 43 246
116 53 49 167 188 167 205 0 7 -89 107 -100 112 -3 2 -34 -20 -69 -48z"/>
<path d="M4288 1865 c-27 -29 -48 -56 -48 -61 0 -16 114 -155 164 -202 29 -26
81 -63 117 -82 58 -31 72 -34 149 -34 68 -1 92 3 119 19 42 25 81 95 81 147
l0 38 -44 0 c-98 0 -288 81 -412 176 -39 30 -73 54 -75 53 -2 0 -25 -24 -51
-54z"/>
<path d="M1692 1721 c-48 -70 -149 -172 -212 -214 -64 -42 -150 -67 -232 -67
l-58 0 0 -49 c0 -88 75 -143 195 -143 102 -1 143 30 306 227 41 50 88 108 105
129 l31 40 -43 53 c-24 30 -44 58 -44 63 0 21 -16 7 -48 -39z"/>
<path d="M4200 1760 c0 -5 -20 -33 -44 -63 l-43 -54 84 -104 c131 -162 218
-255 259 -274 47 -22 147 -22 200 0 54 22 82 52 95 97 18 67 10 74 -87 81
-127 7 -203 48 -320 169 -50 51 -99 108 -109 126 -19 31 -35 42 -35 22z"/>
<path d="M1715 1444 c-76 -91 -152 -177 -168 -190 -15 -13 -53 -31 -83 -40
-46 -13 -54 -19 -54 -39 0 -27 51 -98 93 -129 37 -27 142 -34 185 -12 69 36
180 254 242 477 l18 67 -42 16 c-23 9 -44 16 -46 16 -3 0 -68 -75 -145 -166z"/>
<path d="M4028 1593 l-36 -15 18 -67 c60 -215 170 -433 241 -475 31 -18 114
-21 156 -5 55 21 123 102 123 148 0 15 -10 23 -42 32 -24 6 -55 17 -69 25 -23
11 -178 184 -293 327 -42 51 -44 52 -98 30z"/>
<path d="M1980 1543 c0 -38 -82 -259 -130 -353 -57 -109 -114 -181 -160 -200
-42 -17 -41 -54 2 -80 47 -28 133 -46 151 -31 13 10 173 338 274 559 l33 72
-28 -14 c-33 -17 -57 -9 -96 33 -34 35 -46 39 -46 14z"/>
<path d="M3928 1542 c-7 -10 -27 -29 -44 -41 -27 -19 -35 -21 -54 -11 -12 6
-24 9 -27 7 -5 -5 141 -321 237 -512 l55 -110 44 2 c55 3 132 41 142 70 7 20
3 26 -30 43 -58 29 -106 92 -167 215 -49 101 -124 306 -124 341 0 20 -16 18
-32 -4z"/>
</g>
</svg>
